<svg width="24" height="24" viewBox="0 0 24 24" fill="none" xmlns="http://www.w3.org/2000/svg">
<g clip-path="url(#clip0_350_436)">
<path d="M11.4951 21.9046L11.9981 22.3625L12.5028 21.9065L13.9528 20.5965L13.9544 20.5951L14.031 20.5254C16.5577 18.2293 18.7154 16.2686 20.2369 14.4071C21.7824 12.5164 22.75 10.6364 22.75 8.5C22.75 5.00579 19.9942 2.25 16.5 2.25C14.8171 2.25 13.2007 2.91756 12 4.01322C10.7993 2.91756 9.18291 2.25 7.5 2.25C4.00579 2.25 1.25 5.00579 1.25 8.5C1.25 10.6364 2.21757 12.5164 3.76321 14.4061C5.28999 16.2727 7.45714 18.2379 9.995 20.5392L10.0451 20.5846L10.0462 20.5856L11.4951 21.9046Z" fill="#33475B" fill-opacity="0.48" stroke="white" stroke-width="1.5"/>
</g>
<defs>
<clipPath id="clip0_350_436">
<rect width="24" height="24" fill="white"/>
</clipPath>
</defs>
</svg>
