<svg width="34" height="34" viewBox="0 0 34 34" fill="none" xmlns="http://www.w3.org/2000/svg">
<rect opacity="0.07" width="34" height="34" rx="3" fill="#33475B"/>
<path d="M16.998 14.5807C16.2872 14.5854 15.6069 14.8698 15.1042 15.3724C14.6016 15.8751 14.3172 16.5554 14.3125 17.2662C14.3125 18.736 15.5281 19.9517 16.998 19.9517C18.467 19.9517 19.6835 18.736 19.6835 17.2662C19.6835 15.7972 18.467 14.5807 16.998 14.5807Z" fill="#33475B"/>
<path d="M17 11C10.1672 11 8.11369 16.9233 8.09489 16.9833L8 17.2662L8.09399 17.549C8.11369 17.609 10.1672 23.5323 17 23.5323C23.8328 23.5323 25.8863 17.609 25.9051 17.549L26 17.2662L25.906 16.9833C25.8863 16.9233 23.8328 11 17 11ZM17 21.742C12.21 21.742 10.3543 18.2992 9.90491 17.2662C10.3561 16.2296 12.2127 12.7903 17 12.7903C21.79 12.7903 23.6457 16.2331 24.0951 17.2662C23.6439 18.3028 21.7873 21.742 17 21.742V21.742Z" fill="#33475B"/>
</svg>
