<svg width="40" height="40" viewBox="0 0 40 40" fill="none" xmlns="http://www.w3.org/2000/svg">
<circle cx="20" cy="20" r="20" fill="#0099FF"/>
<g clip-path="url(#clip0_365_881)">
<path d="M26 19V21H30V19H26ZM24 25.61C24.96 26.32 26.21 27.26 27.2 28C27.6 27.47 28 26.93 28.4 26.4C27.41 25.66 26.16 24.72 25.2 24C24.8 24.54 24.4 25.08 24 25.61ZM28.4 13.6C28 13.07 27.6 12.53 27.2 12C26.21 12.74 24.96 13.68 24 14.4C24.4 14.93 24.8 15.47 25.2 16C26.16 15.28 27.41 14.35 28.4 13.6ZM12 17C10.9 17 10 17.9 10 19V21C10 22.1 10.9 23 12 23H13V27H15V23H16L21 26V14L16 17H12ZM23.5 20C23.5 18.67 22.92 17.47 22 16.65V23.34C22.92 22.53 23.5 21.33 23.5 20Z" fill="white"/>
</g>
<defs>
<clipPath id="clip0_365_881">
<rect width="24" height="24" fill="white" transform="translate(8 8)"/>
</clipPath>
</defs>
</svg>
