<svg width="48" height="48" viewBox="0 0 48 48" fill="none" xmlns="http://www.w3.org/2000/svg">
<circle cx="24" cy="24" r="24" fill="#060606" fill-opacity="0.04"/>
<rect x="12" y="14" width="24" height="20" rx="1" stroke="#060606" stroke-width="2"/>
<rect x="15" y="17" width="1" height="14" fill="#060606"/>
<rect x="15" y="17" width="1" height="14" fill="#060606"/>
<rect x="15" y="17" width="1" height="14" fill="#060606"/>
<rect x="17" y="17" width="2" height="14" fill="#060606"/>
<rect x="17" y="17" width="2" height="14" fill="#060606"/>
<rect x="17" y="17" width="2" height="14" fill="#060606"/>
<rect x="21" y="17" width="1" height="14" fill="#060606"/>
<rect x="21" y="17" width="1" height="14" fill="#060606"/>
<rect x="21" y="17" width="1" height="14" fill="#060606"/>
<rect x="27" y="17" width="1" height="14" fill="#060606"/>
<rect x="27" y="17" width="1" height="14" fill="#060606"/>
<rect x="27" y="17" width="1" height="14" fill="#060606"/>
<rect x="23" y="17" width="2" height="14" fill="#060606"/>
<rect x="23" y="17" width="2" height="14" fill="#060606"/>
<rect x="23" y="17" width="2" height="14" fill="#060606"/>
<rect x="29" y="17" width="1" height="14" fill="#060606"/>
<rect x="29" y="17" width="1" height="14" fill="#060606"/>
<rect x="29" y="17" width="1" height="14" fill="#060606"/>
<rect x="31" y="17" width="2" height="14" fill="#060606"/>
<rect x="31" y="17" width="2" height="14" fill="#060606"/>
<rect x="31" y="17" width="2" height="14" fill="#060606"/>
</svg>
