<svg width="428" height="171" viewBox="0 0 428 171" fill="none" xmlns="http://www.w3.org/2000/svg">
<path d="M242.673 79.7527L273.007 0H251.352L233.916 46.1094V0H211.887L179.215 86.3761H201.059L217.956 41.1774V86.2815L90.0256 119.907C70.3878 125.135 54.4817 124.39 45.5053 117.861C22.3018 100.888 40.0708 67.1387 46.2528 56.8843C35.016 69.3682 23.607 81.6865 14.8145 95.2881C1.16296 116.371 -4.82924 139.671 4.52097 154.591C21.3585 181.439 61.5715 168.956 87.2015 158.128L325.347 57.9961L242.667 79.7468L242.673 79.7527ZM183.231 58.002L205.26 0H181.754L160.283 56.7187C158.082 62.5792 155.317 65.5006 150.909 65.5006C145.403 65.5006 146.874 60.3852 148.334 56.7187L169.846 0H146.346L126.145 52.8807C116.771 77.405 126.519 88.0142 143.582 88.0142C163.593 88.0142 175.524 78.3038 183.231 58.002ZM130.737 28.9005C137.156 12.0759 127.972 0 108.524 0H85.0242L52.3577 86.3584H75.8579L88.5305 52.6973L93.609 86.3584H116.403L110.185 50.5033C118.248 47.3986 127.059 38.0549 130.737 28.9005ZM107.961 29.0838C105.76 35.2991 100.438 40.0597 92.9149 40.0597L100.628 19.3852C107.967 19.3852 110.002 23.5899 107.967 29.0779" fill="black"/>
<path d="M148.004 160.881H154.624C154.706 164.786 157.29 165.63 160.839 165.63C164.069 165.63 165.725 164.464 165.725 162.328C165.725 160.396 164.515 159.634 160.557 158.909L158.214 158.464C152.158 157.417 148.605 154.682 148.605 149.49C148.605 144.619 152.318 141 159.829 141C167.341 141 171.577 144.46 171.818 150.333H165.357C165.194 147.676 163.783 146.311 159.948 146.311C156.959 146.311 155.548 147.399 155.548 149.208C155.548 151.222 156.881 152.025 160.434 152.71L162.855 153.154C169.757 154.401 172.787 157.018 172.787 161.884C172.787 167.92 167.942 170.936 160.594 170.936C152.4 170.936 148.041 167.072 148 160.877L148.004 160.881Z" fill="black"/>
<path d="M188.292 170.3C188.01 169.779 187.81 168.89 187.769 167.965C186.436 169.734 184.175 170.781 181.108 170.781C176.749 170.781 173.519 168.568 173.519 164.423C173.519 160.841 175.657 158.468 181.672 157.943L184.943 157.662C186.718 157.462 187.646 156.936 187.646 155.607C187.646 154.36 186.959 153.517 184.457 153.517C181.954 153.517 180.985 154.12 180.785 156.251H174.529C174.852 151.662 177.8 149.05 184.502 149.05C191.203 149.05 193.788 151.503 193.788 155.448V166.473C193.788 168.002 194.07 169.489 194.634 170.296H188.296L188.292 170.3ZM180.703 147.162H176.868C176.868 143.18 178.806 141.611 181.186 141.611C182.559 141.611 183.729 142.056 184.657 142.414C185.503 142.777 186.272 143.058 187.078 143.058C187.805 143.058 188.169 142.655 188.206 141.611H192.042C192.042 145.557 190.103 147.162 187.724 147.162C186.432 147.162 185.303 146.718 184.211 146.319C183.406 145.997 182.555 145.675 181.832 145.675C181.108 145.675 180.74 146.119 180.703 147.162ZM187.646 162.128V160.6C187.2 161.081 186.517 161.285 185.548 161.403L182.964 161.684C180.826 161.925 179.938 162.732 179.938 164.179C179.938 165.625 181.03 166.551 183.005 166.551C185.426 166.551 187.646 165.385 187.646 162.124V162.128Z" fill="black"/>
<path d="M194.871 159.915C194.871 153.317 199.152 149.05 205.813 149.05C212.474 149.05 216.714 153.313 216.714 159.915C216.714 166.518 212.433 170.781 205.813 170.781C199.193 170.781 194.871 166.518 194.871 159.915ZM210.331 159.915C210.331 155.97 208.593 154.079 205.809 154.079C203.024 154.079 201.246 155.97 201.246 159.915C201.246 163.861 202.983 165.752 205.809 165.752C208.634 165.752 210.331 163.861 210.331 159.915Z" fill="black"/>
<path d="M250.537 151.307C250.537 157.103 246.702 160.967 239.919 160.967H233.663V170.3H226.838V141.652H239.919C246.702 141.652 250.537 145.516 250.537 151.307ZM243.717 151.307C243.717 148.772 242.102 147.403 239.477 147.403H233.663V155.208H239.477C242.102 155.208 243.717 153.879 243.717 151.303V151.307Z" fill="black"/>
<path d="M264.505 170.3C264.223 169.779 264.023 168.89 263.982 167.965C262.649 169.734 260.388 170.781 257.321 170.781C252.962 170.781 249.732 168.568 249.732 164.423C249.732 160.841 251.87 158.469 257.885 157.943L261.156 157.662C262.931 157.462 263.859 156.936 263.859 155.607C263.859 154.36 263.172 153.517 260.67 153.517C258.167 153.517 257.198 154.12 256.998 156.251H250.742C251.065 151.662 254.013 149.05 260.715 149.05C267.416 149.05 270.001 151.503 270.001 155.448V166.473C270.001 168.002 270.283 169.489 270.847 170.296H264.509L264.505 170.3ZM263.863 162.129V160.6C263.417 161.081 262.735 161.285 261.766 161.403L259.181 161.684C257.043 161.925 256.156 162.732 256.156 164.179C256.156 165.626 257.247 166.551 259.222 166.551C261.643 166.551 263.863 165.385 263.863 162.124V162.129Z" fill="black"/>
<path d="M291.876 149.534V170.296H285.739V167.358C284.365 169.289 282.267 170.777 279.201 170.777C275.083 170.777 271.976 168.283 271.976 163.131V149.53H278.273V161.884C278.273 164.179 279.283 165.426 281.621 165.426C283.559 165.426 285.579 164.179 285.579 161.122V149.534H291.876Z" fill="black"/>
<path d="M294.301 141.648H300.598V170.296H294.301V141.648Z" fill="black"/>
<path d="M302.213 159.915C302.213 153.317 306.494 149.05 313.155 149.05C319.816 149.05 324.056 153.313 324.056 159.915C324.056 166.518 319.775 170.781 313.155 170.781C306.535 170.781 302.213 166.518 302.213 159.915ZM317.673 159.915C317.673 155.97 315.935 154.079 313.151 154.079C310.366 154.079 308.588 155.97 308.588 159.915C308.588 163.861 310.325 165.752 313.151 165.752C315.976 165.752 317.673 163.861 317.673 159.915Z" fill="black"/>
<path d="M355.536 164.664V170.296H333.334L333.493 167.761C333.694 163.816 334.462 158.827 341.929 155.929L344.19 154.923C347.297 153.635 348.508 152.347 348.508 150.215C348.508 147.921 347.056 146.633 344.472 146.633C341.646 146.633 340.154 148.043 340.154 151.222H333.653C333.612 145.186 336.965 141 344.631 141C351.415 141 355.287 144.701 355.287 149.571C355.287 154.723 352.339 157.258 347.011 159.671L344.631 160.796C342.329 161.884 341.201 162.728 340.996 164.66H355.528L355.536 164.664Z" fill="black"/>
<path d="M356.387 155.974C356.387 146.478 360.545 141.004 368.658 141.004C376.77 141.004 380.888 146.478 380.888 155.974C380.888 165.471 376.77 170.944 368.658 170.944C360.545 170.944 356.387 165.471 356.387 155.974ZM373.785 155.974C373.785 149.172 371.929 146.641 368.658 146.641C365.387 146.641 363.489 149.176 363.489 155.974C363.489 162.773 365.346 165.308 368.658 165.308C371.97 165.308 373.785 162.773 373.785 155.974Z" fill="black"/>
<path d="M403.777 164.664V170.296H381.575L381.734 167.761C381.934 163.816 382.703 158.827 390.17 155.929L392.431 154.923C395.538 153.635 396.749 152.347 396.749 150.215C396.749 147.921 395.297 146.633 392.713 146.633C389.887 146.633 388.395 148.043 388.395 151.222H381.894C381.853 145.186 385.206 141 392.872 141C399.656 141 403.528 144.701 403.528 149.571C403.528 154.723 400.58 157.258 395.252 159.671L392.872 160.796C390.57 161.884 389.442 162.728 389.237 164.66H403.769L403.777 164.664Z" fill="black"/>
<path d="M428 164.06H424.246V170.296H417.422V164.06H403.736V157.662L416.735 141.648H424.242V158.469H427.996V164.06H428ZM409.432 158.469H417.626V148.369L409.432 158.469Z" fill="black"/>
</svg>
