<svg width="48" height="48" viewBox="0 0 48 48" fill="none" xmlns="http://www.w3.org/2000/svg">
<circle cx="24" cy="24" r="24" fill="#060606" fill-opacity="0.04"/>
<g clip-path="url(#clip0_33_1488)">
<path d="M28.6 30.0265L24.5867 26.0132C24.44 25.8665 24.2667 25.8398 24.1734 25.8398C24.08 25.8398 23.9067 25.8665 23.76 26.0132L19.7334 30.0398C19.28 30.4932 18.5734 31.2265 16.2134 31.2265L21.16 36.1598C22.72 37.7198 25.2534 37.7198 26.8134 36.1598L31.7734 31.2132C30.56 31.2132 29.5467 30.9732 28.6 30.0265Z" fill="#060606"/>
<path d="M19.7334 17.9599L23.7601 21.9866C23.8668 22.0933 24.0268 22.1599 24.1734 22.1599C24.3201 22.1599 24.4801 22.0933 24.5868 21.9866L28.5734 17.9999C29.5201 17.0133 30.6001 16.7866 31.8134 16.7866L26.8534 11.8399C25.2934 10.2799 22.7601 10.2799 21.2001 11.8399L16.2534 16.7733C18.6001 16.7733 19.3201 17.5466 19.7334 17.9599Z" fill="#060606"/>
<path d="M36.1466 21.1328L33.1466 18.1194H31.4666C30.7466 18.1194 30.0266 18.4128 29.5333 18.9328L25.5333 22.9328C25.1599 23.3061 24.6666 23.4928 24.1733 23.4928C23.6933 23.4928 23.1866 23.2928 22.8133 22.9328L18.7866 18.8928C18.2799 18.3861 17.5866 18.0928 16.8533 18.0928H14.8933L11.8399 21.1594C10.2799 22.7194 10.2799 25.2528 11.8399 26.8128L14.8933 29.8794H16.8666C17.5866 29.8794 18.2799 29.5861 18.7999 29.0794L22.8266 25.0528C23.1999 24.6794 23.6933 24.4928 24.1866 24.4928C24.6799 24.4928 25.1733 24.6794 25.5466 25.0528L29.5599 29.0661C30.0666 29.5728 30.7599 29.8661 31.4933 29.8661H33.1733L36.1733 26.8528C37.7333 25.2794 37.7333 22.7194 36.1466 21.1328Z" fill="#060606"/>
</g>
<defs>
<clipPath id="clip0_33_1488">
<rect width="32" height="32" fill="white" transform="translate(8 8)"/>
</clipPath>
</defs>
</svg>
