<svg width="208" height="208" viewBox="0 0 208 208" fill="none" xmlns="http://www.w3.org/2000/svg">
<g clip-path="url(#clip0_29_122)">
<path d="M47.7649 120.159H58.7696V123.232H51.4896V125.801H58.7696V128.873H51.4896V134.125H47.7649V120.159Z" fill="#271818"/>
<path d="M61.0962 120.159H72.1029V123.232H64.8209V125.801H72.1029V128.873H64.8209V134.125H61.0962V120.159Z" fill="#271818"/>
<path d="M74.4294 120.159H86.0871V123.232H78.0598V125.653H86.0871V128.633H78.0598V131.053H86.0871V134.125H74.4294V120.159Z" fill="#271818"/>
<path d="M92.1383 120.159H88.4136V134.125H92.1383V120.159Z" fill="#271818"/>
<mask id="mask0_29_122" style="mask-type:luminance" maskUnits="userSpaceOnUse" x="0" y="0" width="208" height="208">
<path d="M208 0H0V208H208V0Z" fill="white"/>
</mask>
<g mask="url(#mask0_29_122)">
<path d="M107.615 120.159H103.911L103.992 123.036L104.058 125.877L104.173 130.524L101.198 123.036C100.843 122.167 100.406 121.472 99.8882 120.946C99.3624 120.415 98.6325 120.151 97.6984 120.159C97.6984 120.159 97.6984 120.159 97.6965 120.16H94.4609V134.125H97.6965V123.367C97.7023 123.367 97.708 123.365 97.7138 123.365C97.8005 123.365 97.8679 123.396 97.916 123.458C97.9642 123.519 98.0085 123.598 98.0451 123.696L102.026 134.125H107.613V129.988L107.6 130.01L107.615 120.159Z" fill="#271818"/>
</g>
<mask id="mask1_29_122" style="mask-type:luminance" maskUnits="userSpaceOnUse" x="0" y="0" width="208" height="208">
<path d="M208 0H0V208H208V0Z" fill="white"/>
</mask>
<g mask="url(#mask1_29_122)">
<path d="M170.493 120.16C170.479 120.16 170.468 120.159 170.456 120.159C169.539 120.159 168.823 120.42 168.303 120.946C167.785 121.472 167.348 122.167 166.993 123.036L165.429 126.838L163.864 123.036C163.509 122.167 163.072 121.472 162.554 120.946C162.034 120.42 161.318 120.159 160.401 120.159C160.389 120.159 160.376 120.16 160.364 120.16H157.129V134.125H160.364V123.367C160.37 123.367 160.376 123.365 160.382 123.365C160.466 123.365 160.534 123.396 160.584 123.458C160.634 123.519 160.676 123.598 160.713 123.696L163.295 130.387C163.492 130.896 163.981 131.233 164.528 131.233H166.335C166.88 131.233 167.371 130.897 167.567 130.387L170.15 123.696C170.186 123.598 170.229 123.519 170.279 123.458C170.325 123.402 170.387 123.373 170.462 123.367V134.125H173.697V120.16H170.493Z" fill="#271818"/>
</g>
<mask id="mask2_29_122" style="mask-type:luminance" maskUnits="userSpaceOnUse" x="0" y="0" width="208" height="208">
<path d="M208 0H0V208H208V0Z" fill="white"/>
</mask>
<g mask="url(#mask2_29_122)">
<path d="M155.382 125.424V123.483C155.382 121.647 153.893 120.159 152.058 120.159H146.199H141.918V134.125H145.203V123.026H146.199H151.624C152.106 123.026 152.497 123.417 152.497 123.899V125.008C152.497 125.49 152.106 125.88 151.624 125.88H147.657C146.465 125.88 145.804 127.263 146.553 128.192L151.349 134.127H155.324L150.989 128.748H152.056C153.893 128.746 155.382 127.259 155.382 125.424Z" fill="#271818"/>
</g>
<mask id="mask3_29_122" style="mask-type:luminance" maskUnits="userSpaceOnUse" x="0" y="0" width="208" height="208">
<path d="M208 0H0V208H208V0Z" fill="white"/>
</mask>
<g mask="url(#mask3_29_122)">
<path d="M133.775 120.159H139.591V134.125H136.109V131.202H130.335L129.153 134.125H125.696L130.428 122.41C130.982 121.048 132.305 120.159 133.775 120.159ZM131.5 128.315H136.109V123.325H134.778C134.505 123.325 134.204 123.402 133.906 123.542C133.682 123.646 133.334 123.901 133.135 124.261L131.5 128.315Z" fill="#271818"/>
</g>
<mask id="mask4_29_122" style="mask-type:luminance" maskUnits="userSpaceOnUse" x="0" y="0" width="208" height="208">
<path d="M208 0H0V208H208V0Z" fill="white"/>
</mask>
<g mask="url(#mask4_29_122)">
<path d="M181.359 129.576L174.855 120.159H179.088L182.751 125.01C182.892 125.226 183.117 125.231 183.204 125.012L185.166 120.157H189.089L183.446 134.123H179.523L181.359 129.576Z" fill="#271818"/>
</g>
<mask id="mask5_29_122" style="mask-type:luminance" maskUnits="userSpaceOnUse" x="0" y="0" width="208" height="208">
<path d="M208 0H0V208H208V0Z" fill="white"/>
</mask>
<g mask="url(#mask5_29_122)">
<path d="M39.622 120.159H45.4383V134.125H41.9562V131.202H36.1823L34.9998 134.125H31.5427L36.2747 122.41C36.8294 121.048 38.1525 120.159 39.622 120.159ZM37.3455 128.315H41.9543V123.325H40.6235C40.35 123.325 40.0495 123.402 39.751 123.542C39.5276 123.646 39.179 123.901 38.9806 124.261L37.3455 128.315Z" fill="#271818"/>
</g>
<mask id="mask6_29_122" style="mask-type:luminance" maskUnits="userSpaceOnUse" x="0" y="0" width="208" height="208">
<path d="M208 0H0V208H208V0Z" fill="white"/>
</mask>
<g mask="url(#mask6_29_122)">
<path d="M20.6074 132.534C21.166 133.049 21.867 133.447 22.7106 133.727C23.556 134.006 24.5306 134.145 25.6341 134.145H29.199L30.4412 131.073H25.9134C24.7212 131.073 23.9085 130.845 23.4732 130.393C23.0399 129.94 22.8223 129.191 22.8223 128.149V126.175C22.8223 125.131 23.0341 124.384 23.4559 123.931C23.8777 123.479 24.6654 123.252 25.8209 123.252H33.6017L34.8439 120.18H25.6341C24.5306 120.18 23.556 120.318 22.7106 120.6C21.867 120.879 21.166 121.276 20.6074 121.79C20.0489 122.306 19.6271 122.932 19.3421 123.671C19.0551 124.411 18.9146 125.233 18.9146 126.139V128.188C18.9146 129.093 19.0571 129.917 19.3421 130.655C19.6252 131.392 20.047 132.02 20.6074 132.534Z" fill="#271818"/>
</g>
<mask id="mask7_29_122" style="mask-type:luminance" maskUnits="userSpaceOnUse" x="0" y="0" width="208" height="208">
<path d="M208 0H0V208H208V0Z" fill="white"/>
</mask>
<g mask="url(#mask7_29_122)">
<path d="M119.935 131.053H113.572V128.631H120.913L122.117 125.651H113.572V123.232H123.095L124.338 120.159H109.941V134.125H118.695L119.935 131.053Z" fill="#271818"/>
</g>
<mask id="mask8_29_122" style="mask-type:luminance" maskUnits="userSpaceOnUse" x="0" y="0" width="208" height="208">
<path d="M208 0H0V208H208V0Z" fill="white"/>
</mask>
<g mask="url(#mask8_29_122)">
<path d="M122.37 92.2249C122.37 102.371 114.144 110.594 104 110.594C93.8543 110.594 85.6306 102.371 85.6306 92.2249C85.6306 82.0791 93.8562 73.8554 104 73.8554C114.146 73.8554 122.37 82.0791 122.37 92.2249Z" fill="#F4DC9F"/>
</g>
<mask id="mask9_29_122" style="mask-type:luminance" maskUnits="userSpaceOnUse" x="0" y="0" width="208" height="208">
<path d="M208 0H0V208H208V0Z" fill="white"/>
</mask>
<g mask="url(#mask9_29_122)">
<path d="M96.2115 87.3716L96.2096 87.3735C97.0435 85.6575 97.1668 84.0628 97.186 83.6719C97.188 83.6314 97.2323 83.6102 97.265 83.6333C97.525 83.8201 98.3801 84.4788 98.7075 85.3012C98.9791 85.983 98.9001 86.865 98.8289 87.333C98.8212 87.3908 98.8982 87.4158 98.9252 87.3638C99.3758 86.451 100.668 83.4292 100.976 78.3043C100.978 78.2658 101.021 78.2427 101.053 78.2638C102.436 79.1517 104.922 80.7926 105.647 83.3945C106.063 84.8871 106.226 86.9767 105.446 89.0221C103.765 93.0839 102.365 96.4658 100.67 100.556C100.66 100.58 100.637 100.591 100.614 100.583C98.253 99.8477 92.7237 95.9766 96.2115 87.3716Z" fill="#271818"/>
</g>
<mask id="mask10_29_122" style="mask-type:luminance" maskUnits="userSpaceOnUse" x="0" y="0" width="208" height="208">
<path d="M208 0H0V208H208V0Z" fill="white"/>
</mask>
<g mask="url(#mask10_29_122)">
<path d="M100.337 105.718C100.31 105.71 100.296 105.681 100.306 105.656C102.69 99.8978 105.03 94.2471 107.415 88.4905C107.424 88.4674 107.451 88.4558 107.474 88.4655C117.526 92.3828 112.775 109.208 100.337 105.718Z" fill="#271818"/>
</g>
</g>
<defs>
<clipPath id="clip0_29_122">
<rect width="208" height="208" fill="white"/>
</clipPath>
</defs>
</svg>
