<svg width="113" height="41" viewBox="0 0 113 41" fill="none" xmlns="http://www.w3.org/2000/svg">
<path d="M1.29458 1.00504H0V40.1825H2.58917V27.714C9.31522 27.0486 14.5225 21.2845 14.5225 14.3921C14.5153 7.00786 8.58476 1.00504 1.29458 1.00504ZM11.9333 14.3921C11.9333 19.838 7.86876 24.4377 2.58917 25.0886V3.68823C7.86876 4.34637 11.9333 8.94612 11.9333 14.3921Z" fill="black"/>
<path d="M103.964 0C99.4292 0 95.7407 3.72464 95.7407 8.3027V32.6973C95.7407 37.2754 99.4292 41 103.964 41C108.499 41 112.187 37.2754 112.187 32.6973V8.3027C112.187 3.72464 108.491 0 103.964 0ZM109.591 8.3027V32.6973C109.591 35.8361 107.067 38.3964 103.957 38.3964C100.847 38.3964 98.3227 35.8434 98.3227 32.6973V8.3027C98.3227 5.16387 100.847 2.60363 103.957 2.60363C107.067 2.60363 109.591 5.16387 109.591 8.3027Z" fill="black"/>
<path d="M79.0999 0C74.5652 0 70.8767 3.72464 70.8767 8.3027V32.6973C70.8767 37.2754 74.5652 41 79.0999 41C83.6345 41 87.323 37.2754 87.323 32.6973V32.2055H84.7338V32.6973C84.7338 35.8361 82.2098 38.3964 79.0999 38.3964C75.9972 38.3964 73.4659 35.8434 73.4659 32.6973V8.3027C73.4659 5.16387 75.99 2.60363 79.0999 2.60363C82.2098 2.60363 84.7338 5.15664 84.7338 8.3027V8.7945H87.323V8.3027C87.3158 3.72464 83.6273 0 79.0999 0Z" fill="black"/>
<path d="M54.2358 0C49.7012 0 46.0127 3.72464 46.0127 8.3027V32.6973C46.0127 37.2754 49.7012 41 54.2358 41C58.7705 41 62.459 37.2754 62.459 32.6973V32.2055H59.8698V32.6973C59.8698 35.8361 57.3457 38.3964 54.2358 38.3964C51.1259 38.3964 48.6019 35.8434 48.6019 32.6973V8.3027C48.6019 5.16387 51.1259 2.60363 54.2358 2.60363C57.3385 2.60363 59.8698 5.15664 59.8698 8.3027V8.7945H62.459V8.3027C62.459 3.72464 58.7633 0 54.2358 0Z" fill="black"/>
<path d="M29.9417 1.69931H27.5839L18.9341 40.1825H21.5883L28.7628 8.28072L35.8288 39.7992L35.9156 40.1825H38.5698L30.0285 2.08262L29.9417 1.69931Z" fill="black"/>
</svg>
