<svg width="216" height="132" viewBox="0 0 216 132" fill="none" xmlns="http://www.w3.org/2000/svg">
<mask id="mask0_29_51" style="mask-type:luminance" maskUnits="userSpaceOnUse" x="0" y="0" width="216" height="132">
<path d="M216 0H0V132H216V0Z" fill="white"/>
</mask>
<g mask="url(#mask0_29_51)">
<path d="M147.599 41.5036L146.283 36.162C146.251 36.0315 146.134 35.9403 145.999 35.9403H137.043C136.854 35.9403 136.714 36.1175 136.759 36.301L138.681 44.1022C138.926 45.1018 139.381 46.0376 140.012 46.8515L147.174 56.0766C147.29 56.2263 147.29 56.4353 147.174 56.5849L140.012 65.8101C139.38 66.6239 138.926 67.5598 138.681 68.5593L136.759 76.3605C136.714 76.5441 136.854 76.7213 137.043 76.7213H145.999C146.134 76.7213 146.251 76.63 146.283 76.4995L147.599 71.158L156.92 59.1517C158.21 57.49 158.21 55.1694 156.92 53.5077L147.599 41.5036Z" fill="#010202"/>
</g>
<mask id="mask1_29_51" style="mask-type:luminance" maskUnits="userSpaceOnUse" x="0" y="0" width="216" height="132">
<path d="M216 0H0V132H216V0Z" fill="white"/>
</mask>
<g mask="url(#mask1_29_51)">
<path d="M181.085 68.5593C180.839 67.5598 180.384 66.6239 179.753 65.8101L172.591 56.5849C172.475 56.4353 172.475 56.2263 172.591 56.0766L179.753 46.8515C180.386 46.0376 180.839 45.1018 181.085 44.1022L183.006 36.301C183.051 36.1175 182.912 35.9403 182.722 35.9403H173.766C173.632 35.9403 173.514 36.0315 173.482 36.162L172.167 41.5036L162.846 53.5099C161.556 55.1715 161.556 57.4921 162.846 59.1538L172.167 71.1601L173.482 76.5016C173.514 76.6321 173.631 76.7234 173.766 76.7234H182.722C182.912 76.7234 183.051 76.5462 183.006 76.3626L181.085 68.5593Z" fill="#010202"/>
</g>
<mask id="mask2_29_51" style="mask-type:luminance" maskUnits="userSpaceOnUse" x="0" y="0" width="216" height="132">
<path d="M216 0H0V132H216V0Z" fill="white"/>
</mask>
<g mask="url(#mask2_29_51)">
<path d="M122.171 35.9403C122.004 35.9403 121.868 36.0761 121.868 36.2427V60.5056C121.868 63.6921 119.633 66.435 116.554 67.0271C113.928 67.5322 111.212 67.7879 108.48 67.7879C105.748 67.7879 103.032 67.5322 100.406 67.0271C97.3276 66.435 95.092 63.6921 95.092 60.5056V36.2427C95.092 36.0761 94.9558 35.9403 94.7888 35.9403H86.2339C86.0669 35.9403 85.9307 36.0761 85.9307 36.2427V60.5056C85.9307 68.0373 91.253 74.5704 98.6693 75.9966C101.819 76.6024 105.103 76.9229 108.479 76.9229C111.854 76.9229 115.137 76.6024 118.288 75.9966C125.704 74.5694 131.027 68.0373 131.027 60.5056V36.2427C131.027 36.0761 130.891 35.9403 130.724 35.9403H122.171Z" fill="#010202"/>
</g>
<mask id="mask3_29_51" style="mask-type:luminance" maskUnits="userSpaceOnUse" x="0" y="0" width="216" height="132">
<path d="M216 0H0V132H216V0Z" fill="white"/>
</mask>
<g mask="url(#mask3_29_51)">
<path d="M66.6132 45.1463C68.8402 45.1463 70.1628 46.4048 70.7523 47.155C71.3418 47.9052 72.2526 49.4862 71.7216 51.6434L68.8753 63.1966C68.1933 65.965 65.7204 67.8983 62.8624 67.8983H42.3839V45.1463H66.6132ZM66.6132 36.1982H33.7141C33.5471 36.1982 33.4109 36.334 33.4109 36.5006V76.5441C33.4109 76.7107 33.546 76.8465 33.7141 76.8465H62.8635C69.8447 76.8465 75.9246 72.0928 77.5898 65.3315L80.4361 53.7783C82.6387 44.8333 75.849 36.1982 66.6132 36.1982Z" fill="#010202"/>
</g>
<mask id="mask4_29_51" style="mask-type:luminance" maskUnits="userSpaceOnUse" x="0" y="0" width="216" height="132">
<path d="M216 0H0V132H216V0Z" fill="white"/>
</mask>
<g mask="url(#mask4_29_51)">
<path d="M33.4226 94.5169C33.4151 94.5095 33.4109 94.4978 33.4109 94.4829V86.704C33.4109 86.6892 33.4141 86.6775 33.4226 86.6701C33.43 86.6627 33.4417 86.6595 33.4566 86.6595H35.1697C35.1846 86.6595 35.1953 86.6627 35.2038 86.6701C35.2112 86.6775 35.2155 86.6892 35.2155 86.704V89.6825H37.6394V86.704C37.6394 86.6892 37.6426 86.6775 37.6511 86.6701C37.6585 86.6627 37.6702 86.6595 37.6851 86.6595H39.3982C39.4131 86.6595 39.4248 86.6627 39.4323 86.6701C39.4397 86.6775 39.4429 86.6892 39.4429 86.704V94.4829C39.4429 94.4978 39.4397 94.5095 39.4323 94.5169C39.4248 94.5243 39.4131 94.5285 39.3982 94.5285H37.6851C37.6702 94.5285 37.6585 94.5254 37.6511 94.5169C37.6436 94.5095 37.6394 94.4978 37.6394 94.4829V91.201H35.2155V94.4829C35.2155 94.4978 35.2112 94.5095 35.2038 94.5169C35.1963 94.5243 35.1846 94.5285 35.1697 94.5285H33.4566C33.4407 94.5285 33.429 94.5243 33.4226 94.5169Z" fill="#010202"/>
</g>
<mask id="mask5_29_51" style="mask-type:luminance" maskUnits="userSpaceOnUse" x="0" y="0" width="216" height="132">
<path d="M216 0H0V132H216V0Z" fill="white"/>
</mask>
<g mask="url(#mask5_29_51)">
<path d="M47.9915 94.0277C47.5137 93.6192 47.2754 92.9698 47.2754 92.0774V86.704C47.2754 86.6892 47.2796 86.6775 47.2871 86.6701C47.2945 86.6627 47.3063 86.6584 47.3211 86.6584H49.0342C49.0491 86.6584 49.0608 86.6616 49.0683 86.6701C49.0757 86.6775 49.08 86.6892 49.08 86.704V91.9872C49.08 92.4148 49.1683 92.7109 49.3449 92.8754C49.5216 93.0398 49.7897 93.1226 50.1504 93.1226H50.3866C50.7474 93.1226 51.0155 93.0398 51.1921 92.8754C51.3688 92.7109 51.4571 92.4138 51.4571 91.9872V86.704C51.4571 86.6892 51.4603 86.6775 51.4677 86.6701C51.4752 86.6627 51.4858 86.6584 51.5018 86.6584H53.2149C53.2298 86.6584 53.2415 86.6616 53.2489 86.6701C53.2564 86.6775 53.2606 86.6892 53.2606 86.704V92.0774C53.2606 92.9687 53.0223 93.6192 52.5445 94.0277C52.0678 94.4362 51.3624 94.64 50.4313 94.64H50.1047C49.1726 94.641 48.4682 94.4362 47.9915 94.0277Z" fill="#010202"/>
</g>
<mask id="mask6_29_51" style="mask-type:luminance" maskUnits="userSpaceOnUse" x="0" y="0" width="216" height="132">
<path d="M216 0H0V132H216V0Z" fill="white"/>
</mask>
<g mask="url(#mask6_29_51)">
<path d="M61.1067 94.5169C61.0992 94.5095 61.095 94.4978 61.095 94.4829V86.704C61.095 86.6892 61.0982 86.6775 61.1067 86.6701C61.1141 86.6627 61.1258 86.6595 61.1407 86.6595H62.7974C62.8123 86.6595 62.8272 86.6627 62.8421 86.6701C62.857 86.6775 62.8687 86.6892 62.8762 86.704L65.0404 90.9081H64.5212L66.6407 86.704C66.6482 86.6892 66.6588 86.6775 66.6748 86.6701C66.6897 86.6627 66.7046 86.6595 66.7195 86.6595H68.3762C68.3911 86.6595 68.4028 86.6627 68.4102 86.6701C68.4177 86.6775 68.4209 86.6892 68.4209 86.704V94.4829C68.4209 94.4978 68.4166 94.5095 68.4102 94.5169C68.4028 94.5243 68.3911 94.5285 68.3762 94.5285H66.7759C66.761 94.5285 66.7493 94.5254 66.7418 94.5169C66.7344 94.5095 66.7301 94.4978 66.7301 94.4829V89.0087L66.9217 89.0767L65.3777 92.382C65.3703 92.3968 65.3607 92.4064 65.349 92.4106C65.3373 92.4149 65.3245 92.4159 65.3096 92.4159H64.3179C64.303 92.4159 64.2903 92.4138 64.2786 92.4106C64.2669 92.4064 64.2584 92.3979 64.2498 92.382L62.5931 89.0767L62.7847 89.0087V94.4829C62.7847 94.4978 62.7804 94.5095 62.774 94.5169C62.7666 94.5243 62.7549 94.5285 62.74 94.5285H61.1397C61.1248 94.5285 61.1141 94.5243 61.1067 94.5169Z" fill="#010202"/>
</g>
<mask id="mask7_29_51" style="mask-type:luminance" maskUnits="userSpaceOnUse" x="0" y="0" width="216" height="132">
<path d="M216 0H0V132H216V0Z" fill="white"/>
</mask>
<g mask="url(#mask7_29_51)">
<path d="M76.0534 94.5169C76.0459 94.5095 76.0427 94.4978 76.0427 94.4829V92.5167C76.0427 92.2621 76.0629 92.0318 76.1044 91.8249C76.1459 91.619 76.2119 91.3888 76.3013 91.1331L77.9357 86.7157C77.9431 86.7009 77.9527 86.6881 77.9644 86.6765C77.975 86.6648 77.992 86.6595 78.0144 86.6595H80.3031C80.3255 86.6595 80.3425 86.6648 80.3531 86.6765C80.3649 86.6881 80.3734 86.7009 80.3819 86.7157L82.0162 91.1331C82.1067 91.3877 82.1716 91.618 82.2131 91.8249C82.2546 92.0307 82.2748 92.2621 82.2748 92.5167V94.484C82.2748 94.4988 82.2706 94.5105 82.2642 94.5179C82.2567 94.5254 82.245 94.5296 82.2301 94.5296H80.5734C80.5585 94.5296 80.5468 94.5264 80.5394 94.5179C80.5319 94.5105 80.5277 94.4988 80.5277 94.484V92.0785L78.938 87.4468H79.3774L77.7878 92.0785V94.484C77.7878 94.4988 77.7835 94.5105 77.7771 94.5179C77.7697 94.5254 77.758 94.5296 77.7431 94.5296H76.0864C76.0725 94.5286 76.0608 94.5243 76.0534 94.5169ZM77.1131 91.3251H80.9682V92.7417H77.1131V91.3251Z" fill="#010202"/>
</g>
<mask id="mask8_29_51" style="mask-type:luminance" maskUnits="userSpaceOnUse" x="0" y="0" width="216" height="132">
<path d="M216 0H0V132H216V0Z" fill="white"/>
</mask>
<g mask="url(#mask8_29_51)">
<path d="M89.907 94.5169C89.8995 94.5095 89.8953 94.4978 89.8953 94.4829V86.704C89.8953 86.6892 89.8985 86.6775 89.907 86.6701C89.9144 86.6627 89.9261 86.6595 89.941 86.6595H91.6658C91.6807 86.6595 91.6946 86.6627 91.7052 86.6701C91.7158 86.6775 91.7254 86.6892 91.7339 86.704L94.3717 90.5707L94.1461 91.2784V86.704C94.1461 86.6892 94.1493 86.6775 94.1578 86.6701C94.1653 86.6627 94.1759 86.6595 94.1919 86.6595H95.905C95.9199 86.6595 95.9316 86.6627 95.939 86.6701C95.9465 86.6775 95.9497 86.6892 95.9497 86.704V94.4829C95.9497 94.4978 95.9454 94.5095 95.939 94.5169C95.9316 94.5243 95.9199 94.5285 95.905 94.5285H94.1802C94.1727 94.5285 94.1653 94.5254 94.1578 94.5169C94.1504 94.5095 94.1461 94.4978 94.1461 94.4829V93.6967C94.1461 93.4271 94.1142 93.1905 94.0503 92.9878C93.9865 92.7852 93.8758 92.5687 93.7184 92.3363L91.4296 89.0087L91.6999 88.3456V94.4829C91.6999 94.4978 91.6956 94.5095 91.6882 94.5169C91.6807 94.5243 91.669 94.5285 91.6541 94.5285H89.941C89.9251 94.5285 89.9144 94.5243 89.907 94.5169Z" fill="#010202"/>
</g>
<mask id="mask9_29_51" style="mask-type:luminance" maskUnits="userSpaceOnUse" x="0" y="0" width="216" height="132">
<path d="M216 0H0V132H216V0Z" fill="white"/>
</mask>
<g mask="url(#mask9_29_51)">
<path d="M113.025 94.5169C113.018 94.5095 113.014 94.4978 113.014 94.4829V86.704C113.014 86.6892 113.017 86.6775 113.025 86.6701C113.033 86.6627 113.045 86.6595 113.059 86.6595H114.773C114.787 86.6595 114.798 86.6627 114.807 86.6701C114.814 86.6775 114.818 86.6892 114.818 86.704V89.6825H117.242V86.704C117.242 86.6892 117.245 86.6775 117.253 86.6701C117.26 86.6627 117.272 86.6595 117.287 86.6595H119C119.015 86.6595 119.027 86.6627 119.034 86.6701C119.041 86.6775 119.045 86.6892 119.045 86.704V94.4829C119.045 94.4978 119.041 94.5095 119.034 94.5169C119.027 94.5243 119.015 94.5285 119 94.5285H117.287C117.272 94.5285 117.26 94.5254 117.253 94.5169C117.245 94.5095 117.242 94.4978 117.242 94.4829V91.201H114.818V94.4829C114.818 94.4978 114.814 94.5095 114.807 94.5169C114.799 94.5243 114.787 94.5285 114.773 94.5285H113.059C113.045 94.5285 113.033 94.5243 113.025 94.5169Z" fill="#010202"/>
</g>
<mask id="mask10_29_51" style="mask-type:luminance" maskUnits="userSpaceOnUse" x="0" y="0" width="216" height="132">
<path d="M216 0H0V132H216V0Z" fill="white"/>
</mask>
<g mask="url(#mask10_29_51)">
<path d="M126.947 94.5169C126.94 94.5095 126.936 94.4978 126.936 94.4829V86.704C126.936 86.6892 126.939 86.6775 126.947 86.6701C126.955 86.6627 126.966 86.6595 126.981 86.6595H132.054C132.068 86.6595 132.08 86.6627 132.088 86.6701C132.095 86.6775 132.098 86.6892 132.098 86.704V88.1312C132.098 88.1461 132.094 88.1577 132.088 88.1652C132.08 88.1726 132.068 88.1758 132.054 88.1758H128.74V89.7494H131.603C131.618 89.7494 131.63 89.7536 131.638 89.7611C131.645 89.7685 131.648 89.7802 131.648 89.795V91.1659C131.648 91.1808 131.645 91.1925 131.638 91.1999C131.63 91.2073 131.618 91.2105 131.603 91.2105H128.74V93.0091H132.077C132.092 93.0091 132.104 93.0123 132.111 93.0197C132.118 93.0271 132.122 93.0388 132.122 93.0536V94.4808C132.122 94.4957 132.117 94.5073 132.111 94.5148C132.104 94.5222 132.092 94.5264 132.077 94.5264H126.982C126.965 94.5286 126.955 94.5243 126.947 94.5169Z" fill="#010202"/>
</g>
<mask id="mask11_29_51" style="mask-type:luminance" maskUnits="userSpaceOnUse" x="0" y="0" width="216" height="132">
<path d="M216 0H0V132H216V0Z" fill="white"/>
</mask>
<g mask="url(#mask11_29_51)">
<path d="M139.324 94.5169C139.317 94.5095 139.312 94.4978 139.312 94.4829V92.5167C139.312 92.2621 139.333 92.0318 139.374 91.8249C139.416 91.619 139.482 91.3888 139.571 91.1331L141.205 86.7157C141.213 86.7009 141.222 86.6881 141.233 86.6765C141.245 86.6648 141.261 86.6595 141.284 86.6595H143.573C143.595 86.6595 143.612 86.6648 143.623 86.6765C143.634 86.6881 143.643 86.7009 143.652 86.7157L145.286 91.1331C145.376 91.3877 145.442 91.618 145.483 91.8249C145.524 92.0307 145.545 92.2621 145.545 92.5167V94.484C145.545 94.4988 145.54 94.5105 145.534 94.5179C145.526 94.5254 145.515 94.5296 145.5 94.5296H143.843C143.827 94.5296 143.817 94.5264 143.809 94.5179C143.802 94.5105 143.798 94.4988 143.798 94.484V92.0785L142.209 87.4468H142.648L141.059 92.0785V94.484C141.059 94.4988 141.054 94.5105 141.048 94.5179C141.04 94.5254 141.029 94.5296 141.014 94.5296H139.357C139.342 94.5286 139.332 94.5243 139.324 94.5169ZM140.383 91.3251H144.238V92.7417H140.383V91.3251Z" fill="#010202"/>
</g>
<mask id="mask12_29_51" style="mask-type:luminance" maskUnits="userSpaceOnUse" x="0" y="0" width="216" height="132">
<path d="M216 0H0V132H216V0Z" fill="white"/>
</mask>
<g mask="url(#mask12_29_51)">
<path d="M153.178 94.5169C153.171 94.5095 153.166 94.4978 153.166 94.4829V86.704C153.166 86.6892 153.169 86.6775 153.178 86.6701C153.185 86.6627 153.197 86.6595 153.212 86.6595H154.925C154.94 86.6595 154.951 86.6627 154.959 86.6701C154.967 86.6775 154.971 86.6892 154.971 86.704V93.0101H157.913C157.928 93.0101 157.94 93.0133 157.947 93.0207C157.954 93.0282 157.959 93.0398 157.959 93.0547V94.4819C157.959 94.4967 157.954 94.5084 157.947 94.5158C157.94 94.5232 157.928 94.5275 157.913 94.5275H153.212C153.196 94.5285 153.185 94.5243 153.178 94.5169Z" fill="#010202"/>
</g>
<mask id="mask13_29_51" style="mask-type:luminance" maskUnits="userSpaceOnUse" x="0" y="0" width="216" height="132">
<path d="M216 0H0V132H216V0Z" fill="white"/>
</mask>
<g mask="url(#mask13_29_51)">
<path d="M165.848 94.5169C165.84 94.5095 165.836 94.4978 165.836 94.4829V88.1769H164.021C164.006 88.1769 163.994 88.1737 163.987 88.1662C163.979 88.1588 163.975 88.1471 163.975 88.1323V86.7051C163.975 86.6903 163.979 86.6786 163.987 86.6712C163.994 86.6637 164.005 86.6606 164.021 86.6606H169.454C169.468 86.668 169.48 86.6754 169.488 86.6828C169.495 86.6828 169.499 86.6903 169.499 86.7051V88.1323C169.499 88.1471 169.495 88.1588 169.488 88.1662C169.48 88.1737 169.468 88.1769 169.454 88.1769H167.638V94.4829V94.4999C167.638 94.5042 167.634 94.5052 167.628 94.5052C167.62 94.5126 167.609 94.5201 167.594 94.5275H165.881C165.866 94.5286 165.855 94.5243 165.848 94.5169Z" fill="#010202"/>
</g>
<mask id="mask14_29_51" style="mask-type:luminance" maskUnits="userSpaceOnUse" x="0" y="0" width="216" height="132">
<path d="M216 0H0V132H216V0Z" fill="white"/>
</mask>
<g mask="url(#mask14_29_51)">
<path d="M176.996 94.5169C176.988 94.5095 176.984 94.4978 176.984 94.4829V86.704C176.984 86.6892 176.987 86.6775 176.996 86.6701C177.003 86.6627 177.015 86.6595 177.03 86.6595H178.743C178.758 86.6595 178.768 86.6627 178.777 86.6701C178.784 86.6775 178.789 86.6892 178.789 86.704V89.6825H181.212V86.704C181.212 86.6892 181.216 86.6775 181.223 86.6701C181.23 86.6627 181.242 86.6595 181.257 86.6595H182.97C182.985 86.6595 182.997 86.6627 183.004 86.6701C183.012 86.6775 183.015 86.6892 183.015 86.704V94.4829C183.015 94.4978 183.012 94.5095 183.004 94.5169C182.997 94.5243 182.985 94.5285 182.97 94.5285H181.257C181.242 94.5285 181.23 94.5254 181.223 94.5169C181.216 94.5095 181.212 94.4978 181.212 94.4829V91.201H178.789V94.4829C178.789 94.4978 178.784 94.5095 178.777 94.5169C178.769 94.5243 178.758 94.5285 178.743 94.5285H177.03C177.015 94.5285 177.003 94.5243 176.996 94.5169Z" fill="#010202"/>
</g>
</svg>
