<svg width="68" height="68" viewBox="0 0 68 68" fill="none" xmlns="http://www.w3.org/2000/svg">
<g clip-path="url(#clip0_29_112)">
<path d="M34 0C15.2228 0 0 15.2228 0 34C0 52.7772 15.2228 68 34 68C52.7772 68 68 52.7772 68 34C68 15.2228 52.7772 0 34 0ZM65.789 34C65.789 51.5557 51.5577 65.789 34 65.789C16.4423 65.789 2.21096 51.5557 2.21096 34C2.21096 16.4443 16.4443 2.21096 34 2.21096C51.5557 2.21096 65.789 16.4443 65.789 34Z" fill="black"/>
<path d="M50.4782 19.5748C50.94 20.0705 51.6057 20.8702 51.9795 21.3559L58.8642 16.986C58.5204 16.5362 57.9727 15.8525 57.5629 15.3708L53.2029 18.2534L52.905 18.5093L53.1269 18.1854L55.052 14.3432L53.6907 12.9819L49.8465 14.907L49.5226 15.1289L49.7805 14.831L52.6652 10.4731C52.1574 10.0413 51.6696 9.64545 51.0479 9.16568L46.678 16.0444C47.2317 16.4702 47.9614 17.0959 48.4272 17.5217L52.5412 15.3868L52.8051 15.1928L52.6112 15.4567L50.4782 19.5748Z" fill="black"/>
<path d="M34.8556 10.8569L36.7367 6.64286L36.8566 6.26904L36.8227 6.65886L37.0206 12.2902C37.6803 12.3522 38.3619 12.4441 39.0336 12.5561L38.7278 4.21601C37.7882 4.11205 36.8526 4.03809 35.9171 3.99811L34.064 8.59794L33.998 8.93978L33.932 8.59794L32.0809 3.99811C31.1453 4.03809 30.2098 4.11205 29.2702 4.21601L28.9644 12.5561C29.636 12.4441 30.3177 12.3542 30.9774 12.2902L31.1753 6.65886L31.1413 6.26904L31.2613 6.64286L33.1424 10.8569H34.8556Z" fill="black"/>
<path d="M19.6407 17.5038C20.7282 16.3583 21.3439 15.0349 20.2564 13.7715C19.6647 13.0858 18.6712 12.9359 17.8476 13.2737L17.7656 13.3057L17.7916 13.2338C17.9135 12.9079 17.9915 11.8684 17.1059 11.1507C16.6741 10.8009 16.1324 10.671 15.5846 10.7269C14.5631 10.8309 13.7775 11.5286 11.6385 13.9134C10.9928 14.6331 10.0532 15.7686 9.4895 16.5042L15.3647 22.0776C17.3118 19.9226 18.1054 19.121 19.6407 17.5038ZM11.9743 16.1404C13.1578 14.6931 14.4152 13.3797 14.9849 12.8599C15.1648 12.696 15.3607 12.5321 15.5986 12.4681C15.9844 12.3622 16.3823 12.636 16.4722 13.0319C16.5622 13.4297 16.3123 13.8075 16.0344 14.1193C15.4087 14.825 13.1138 17.2259 13.1138 17.2259L11.9743 16.1404ZM14.2753 18.3234C14.2753 18.3234 16.5102 15.9605 17.2399 15.2048C17.5297 14.905 17.7156 14.7231 17.9155 14.6251C18.1734 14.4992 18.4553 14.4732 18.7072 14.6411C18.955 14.807 19.069 15.0929 19.007 15.3768C18.9331 15.7146 18.6572 16.0364 18.4293 16.2823C18.1214 16.6122 15.4707 19.4488 15.4667 19.4528L14.2753 18.3234Z" fill="black"/>
<path d="M33.9999 13.8375C22.8572 13.8375 13.8374 22.8572 13.8374 34C13.8374 45.1348 22.8652 54.1625 33.9999 54.1625C45.1427 54.1625 54.1624 45.1428 54.1624 34C54.1624 22.8652 45.1347 13.8375 33.9999 13.8375ZM33.9999 34V53.057C23.4929 53.057 14.9429 44.5091 14.9429 34H33.9999V14.943C44.507 14.943 53.0569 23.491 53.0569 34H33.9999Z" fill="black"/>
</g>
<defs>
<clipPath id="clip0_29_112">
<rect width="68" height="68" fill="white"/>
</clipPath>
</defs>
</svg>
